<?xml version="1.0" encoding="UTF-8" standalone="no"?>
<!-- Created with Inkscape (http://www.inkscape.org/) -->

<svg
   width="255.66029"
   height="133.61519"
   viewBox="0 0 255.66029 133.61519"
   version="1.1"
   id="svg5"
   inkscape:export-filename="logo.svg"
   inkscape:export-xdpi="96"
   inkscape:export-ydpi="96"
   xmlns:inkscape="http://www.inkscape.org/namespaces/inkscape"
   xmlns:sodipodi="http://sodipodi.sourceforge.net/DTD/sodipodi-0.dtd"
   xmlns="http://www.w3.org/2000/svg"
   xmlns:svg="http://www.w3.org/2000/svg">
  <sodipodi:namedview
     id="namedview7"
     pagecolor="#ffffff"
     bordercolor="#000000"
     borderopacity="0.25"
     inkscape:showpageshadow="2"
     inkscape:pageopacity="0.0"
     inkscape:pagecheckerboard="0"
     inkscape:deskcolor="#d1d1d1"
     inkscape:document-units="px"
     showgrid="false" />
  <defs
     id="defs2" />
  <g
     inkscape:label="Capa 1"
     inkscape:groupmode="layer"
     id="layer1">
    <g
       aria-label="yrnl."
       id="text113"
       style="font-weight:600;font-size:145.078px;font-family:'Frank Ruhl Libre';-inkscape-font-specification:'Frank Ruhl Libre Semi-Bold';letter-spacing:-5px;stroke-width:1.00749">
      <path
         id="path282"
         style="font-weight:bold;-inkscape-font-specification:'Frank Ruhl Libre Bold'"
         d="m 241.00586,0 -23.35742,3.6269597 v 4.7871 h 4.78906 c 1.74094,1e-5 2.85234,0.38641 3.33594,1.16016 0.5803,0.7737503 0.87109,2.2735203 0.87109,4.4980503 V 88.0625 c 0,1.93437 -0.19321,3.43414 -0.58008,4.49805 -0.38687,1.063896 -1.25727,1.788896 -2.61133,2.175776 -1.35301,0.38658 -3.38289,0.57978 -6.08789,0.58008 h -0.006 c -2.60822,-3.1e-4 -4.54053,-0.19352 -5.79687,-0.58008 -1.25734,-0.38688 -2.12774,-1.06406 -2.61133,-2.03125 -0.38687,-1.063896 -0.58008,-2.611486 -0.58008,-4.642576 V 53.09766 c 0,-7.93093 -1.88618,-13.68509 -5.6582,-17.26367 -3.77203,-3.67531 -8.849,-5.51367 -15.23242,-5.51367 -3.96546,-10e-6 -7.4968,0.58156 -10.5918,1.74218 -2.99828,1.16062 -5.70508,2.65844 -8.12305,4.4961 -1.77636,1.35003 -3.42018,2.75454 -4.93554,4.20898 h -0.4336 v -9.57617 h -6.23828 l -22.77734,3.62695 v 4.76563 c -0.4989,-2.12351 -1.47233,-3.95728 -2.94141,-5.49024 -2.22453,-2.41796 -5.36751,-3.62695 -9.42969,-3.62695 -3.48187,0 -6.48141,0.8704 -8.99609,2.61133 -2.41796,1.74094 -4.44758,3.82031 -6.0918,6.23828 -1.20144,1.76683 -2.21864,3.50746 -3.05859,5.22265 h -0.42383 V 31.19141 H 97.201027 L 74.42369,34.81836 v -0.002 H 51.35728 v 4.78711 h 4.78711 c 1.25734,0 2.12773,0.3864 2.61133,1.16015 0.48359,0.77375 0.48359,1.83931 0,3.19336 L 45.05845,79.79097 h -0.375 L 31.62681,44.68159 c -0.58031,-1.74093 -0.63008,-2.99774 -0.14648,-3.77148 0.58031,-0.87047 1.4507,-1.30664 2.61132,-1.30664 H 38.5897 V 34.81636 H 0 v 4.78711 c 2.32124,0 4.0620403,0.14539 5.2226503,0.43554 1.16063,0.19344 2.07883,0.72524 2.75586,1.59571 0.67703,0.77374 1.35422,2.08032 2.0312497,3.91797 l 25.00586,60.50976 -3.09961,8.11133 c -1.93437,5.02936 -3.72297,8.60852 -5.36718,10.73633 -1.64422,2.12781 -3.3372,3.1914 -5.07813,3.1914 -0.77374,0 -1.40312,-0.19319 -1.88672,-0.58007 -0.48359,-0.38688 -0.72461,-0.91868 -0.72461,-1.59571 0,-0.67703 0.19321,-1.25859 0.58008,-1.74218 0.48359,-0.38688 0.91977,-0.96649 1.30664,-1.74024 0.38687,-0.67702 0.58008,-1.64304 0.58008,-2.90039 0,-2.51468 -0.82259,-4.59601 -2.4668,-6.24023 -1.5475,-1.64422 -3.67469,-2.46485 -6.38281,-2.46485 -2.8048397,0 -5.1271897,0.96602 -6.9648397,2.90039 -1.74093,2.0311 -2.6113303,4.35344 -2.6113303,6.96485 0,2.41796 0.6293803,4.59297 1.8867203,6.52734 1.35406,2.03109 3.14265,3.57868 5.3671797,4.64258 2.22453,1.16062 4.64251,1.74219 7.25391,1.74219 3.6753,0 6.72266,-0.8704 9.14063,-2.61133 2.51468,-1.74094 4.64188,-4.15892 6.38281,-7.25391 1.83765,-2.99827 3.48281,-6.4818 4.93359,-10.44726 1.5475,-3.86875 3.1907,-7.88212 4.93164,-12.04102 L 64.70312,47.58394 c 1.0639,-2.41797 1.98406,-4.15876 2.75782,-5.22266 0.87046,-1.16062 1.83648,-1.88758 2.90039,-2.17773 1.16062,-0.38688 2.515,-0.58008 4.0625,-0.58008 v 0.002 h 4.78711 c 1.74093,0 2.85429,0.38836 3.33789,1.16211 0.58031,0.77375 0.86914,2.22375 0.86914,4.35156 V 88.0625 c 0,2.03109 -0.1932,3.57868 -0.58008,4.642576 -0.38687,0.96719 -1.25727,1.64437 -2.61133,2.03125 -1.25734,0.38687 -3.28891,0.58008 -6.09375,0.58008 v 4.787114 h 41.05859 v -4.787114 c -3.19171,0 -5.60968,-0.19321 -7.2539,-0.58008 -1.5475,-0.38688 -2.61305,-1.06406 -3.19336,-2.03125 -0.48359,-1.063896 -0.72461,-2.611486 -0.72461,-4.642576 V 60.78711 c 0,-2.51468 0.3864,-5.07805 1.16016,-7.68945 0.77374,-2.70813 1.74171,-5.22173 2.90234,-7.54297 1.16062,-2.32124 2.41742,-4.15961 3.77148,-5.51367 1.35406,-1.35406 2.61087,-2.03125 3.77149,-2.03125 0.58031,0 1.01648,0.14539 1.30664,0.43555 0.29015,0.19343 0.43555,0.4364 0.43555,0.72656 0,0.38687 -0.24297,0.82109 -0.72657,1.30468 -0.38687,0.38688 -0.82109,0.96649 -1.30468,1.74024 -0.38688,0.77375 -0.58008,1.88711 -0.58008,3.33789 0,2.80484 0.87039,4.97985 2.61133,6.52734 1.83765,1.45078 4.20586,2.17774 7.10742,2.17774 3.67531,0 6.28844,-1.11337 7.83594,-3.33789 1.64421,-2.32125 2.46484,-4.93243 2.46484,-7.83399 0,-1.24009 -0.13737,-2.39648 -0.39063,-3.48242 h 4.78321 c 1.74093,0 2.85429,0.38836 3.33789,1.16211 0.58031,0.77375 0.87109,2.22375 0.87109,4.35156 V 88.0625 c 0,2.03109 -0.19516,3.57868 -0.58203,4.642576 -0.38687,1.06391 -1.25727,1.78891 -2.61133,2.17578 -1.25734,0.29016 -3.28696,0.43555 -6.0918,0.43555 v 4.787114 h 37.86524 v -4.787114 c -2.22453,0 -3.91751,-0.14539 -5.07813,-0.43555 -1.0639,-0.29015 -1.83867,-0.91953 -2.32226,-1.88672 -0.38687,-1.063896 -0.58008,-2.611476 -0.58008,-4.642576 V 46.07617 c 2.09739,-1.93505 4.03799,-3.52527 5.80273,-4.72851 2.12781,-1.45078 4.64337,-2.17578 7.54493,-2.17578 2.22453,0 4.1107,0.48203 5.6582,1.44922 1.64421,0.96718 2.8532,2.56453 3.62695,4.78906 0.87047,2.12781 1.30469,4.98 1.30469,8.55859 v 34.81836 c 0,1.83765 -0.1932,3.23985 -0.58008,4.207026 -0.29016,0.96719 -0.96734,1.59657 -2.03125,1.88672 -1.0639,0.29016 -2.70711,0.43555 -4.93164,0.43555 v 4.787114 h 36.98828 0.006 38.29492 v -4.787114 c -2.41796,0 -4.25633,-0.19321 -5.51367,-0.58008 -1.16062,-0.38688 -1.93344,-1.06406 -2.32031,-2.03125 -0.38687,-1.063896 -0.58203,-2.611486 -0.58203,-4.642576 V 0 Z" />
    </g>
  </g>
</svg>
